<svg width="116" height="116" viewBox="0 0 116 116" fill="none" xmlns="http://www.w3.org/2000/svg">
<path d="M2.26562 36.7031H113.734V113.734H2.26562V36.7031Z" fill="white"/>
<path d="M14.9531 49.3906H36.5053V66.6094H14.9531V49.3906Z" fill="#FBE4AA"/>
<path d="M14.9531 83.8281H36.5053V101.047H14.9531V83.8281Z" fill="#F06129"/>
<path d="M58.0288 83.8281H79.581V101.047H58.0288V83.8281Z" fill="#F06129"/>
<path d="M14.9531 66.6094H36.5053V83.8281H14.9531V66.6094Z" fill="#FF9A3D"/>
<path d="M36.5054 66.6094H58.0576V83.8281H36.5054V66.6094Z" fill="#FF9A3D"/>
<path d="M79.5522 66.6094H101.104V83.8281H79.5522V66.6094Z" fill="#FF9A3D"/>
<path d="M58.0288 49.3906H79.581V66.6094H58.0288V49.3906Z" fill="#FBE4AA"/>
<path d="M2.26562 11.3281H113.734V36.7031H2.26562V11.3281Z" fill="#F06129"/>
<path d="M89.7188 17.2188V7.25C89.7188 4.49727 91.9504 2.26562 94.7031 2.26562C97.4559 2.26562 99.6875 4.49727 99.6875 7.25V17.2188C99.6875 19.9715 97.4559 22.2031 94.7031 22.2031C91.9504 22.2031 89.7188 19.9715 89.7188 17.2188Z" fill="#E5EAF0"/>
<path d="M65.25 17.2188V7.25C65.25 4.49727 67.4816 2.26562 70.2344 2.26562C72.9871 2.26562 75.2188 4.49727 75.2188 7.25V17.2188C75.2188 19.9715 72.9871 22.2031 70.2344 22.2031C67.4816 22.2031 65.25 19.9715 65.25 17.2188Z" fill="#E5EAF0"/>
<path d="M40.7812 17.2188V7.25C40.7812 4.49727 43.0129 2.26562 45.7656 2.26562C48.5184 2.26562 50.75 4.49727 50.75 7.25V17.2188C50.75 19.9715 48.5184 22.2031 45.7656 22.2031C43.0129 22.2031 40.7812 19.9715 40.7812 17.2188Z" fill="#E5EAF0"/>
<path d="M16.3125 17.2188V7.25C16.3125 4.49727 18.5441 2.26562 21.2969 2.26562C24.0496 2.26562 26.2812 4.49727 26.2812 7.25V17.2188C26.2812 19.9715 24.0496 22.2031 21.2969 22.2031C18.5441 22.2031 16.3125 19.9715 16.3125 17.2188Z" fill="#E5EAF0"/>
</svg>
