<svg width="122" height="122" viewBox="0 0 122 122" fill="none" xmlns="http://www.w3.org/2000/svg">
<g clip-path="url(#clip0)">
<path d="M75.685 111.575H46.3145L48.3804 105.38L51.0801 97.2783L60.9997 92.5127L64.0164 93.9614L70.9194 97.2783L75.685 111.575Z" fill="#FF9A3D"/>
<path d="M75.685 111.575H46.3145L48.3804 105.38H64.7384C66.2562 105.38 67.3261 103.893 66.8471 102.454L64.0164 93.9614L70.9194 97.2783L75.685 111.575Z" fill="#FF9A3D"/>
<path d="M122 12.3096V93.6064C122 95.6342 120.353 97.2783 118.321 97.2783H3.67906C1.64652 97.2783 0 95.6342 0 93.6064V12.3096C0 10.2818 1.64652 8.6377 3.67906 8.6377H118.321C120.353 8.6377 122 10.2818 122 12.3096V12.3096Z" fill="white"/>
<path d="M122 12.3096V93.6064C122 95.6342 120.353 97.2783 118.321 97.2783H3.67906C1.64652 97.2783 0 95.6342 0 93.6064V84.5088H113.555C115.588 84.5088 117.234 82.8647 117.234 80.8369V12.3096C117.234 10.2818 115.588 8.6377 113.555 8.6377H118.321C120.353 8.6377 122 10.2818 122 12.3096V12.3096Z" fill="white"/>
<path d="M122 88.9385V93.6064C122 95.6342 120.353 97.2783 118.321 97.2783H3.67906C1.64652 97.2783 0 95.6342 0 93.6064V88.9385H122Z" fill="#F06129"/>
<path d="M122 12.3096V16.9775H0V12.3096C0 10.2818 1.64652 8.6377 3.67906 8.6377H118.321C120.353 8.6377 122 10.2818 122 12.3096Z" fill="#F06129"/>
<path d="M122 12.3096V16.9775H117.235V12.3096C117.235 10.2818 115.588 8.6377 113.556 8.6377H118.321C120.354 8.6377 122 10.2818 122 12.3096Z" fill="#F06129"/>
<path d="M122 88.9385V93.6064C122 95.6342 120.353 97.2783 118.321 97.2783H3.67906C1.64652 97.2783 0 95.6342 0 93.6064V92.6104H113.555C115.588 92.6104 117.234 90.9663 117.234 88.9385H122Z" fill="#F06129"/>
<path d="M83.3984 109.788H38.6011C37.6141 109.788 36.814 110.588 36.814 111.575C36.814 112.562 37.6141 113.362 38.6011 113.362H83.3984C84.3856 113.362 85.1855 112.562 85.1855 111.575C85.1855 110.588 84.3856 109.788 83.3984 109.788Z" fill="#F06129"/>
<path d="M63.9605 32.3882V73.8396C63.9605 74.2995 63.5887 74.6736 63.1265 74.6736H21.7153C21.2531 74.6736 20.8813 74.2995 20.8813 73.8396V32.3882C20.8813 31.9283 21.2531 31.5542 21.7153 31.5542H63.1267C63.5887 31.5542 63.9605 31.9283 63.9605 32.3882Z" fill="url(#paint0_linear)"/>
<path d="M63.9605 32.3882V73.8396C63.9605 74.2995 63.5887 74.6736 63.1265 74.6736H21.7153C21.2531 74.6736 20.8813 74.2995 20.8813 73.8396V68.7165H56.9312C57.3934 68.7165 57.7651 68.3424 57.7651 67.8826V31.5542H63.1265C63.5887 31.5542 63.9605 31.9283 63.9605 32.3882Z" fill="#FF9A3D"/>
<path d="M49.8374 31.5542V51.5222C49.8374 51.8081 49.6897 52.075 49.4466 52.2275C49.3108 52.3133 49.1583 52.3562 49.0034 52.3562C48.8795 52.3562 48.7556 52.3276 48.6388 52.2728L42.4221 49.2656L36.2029 52.2728C35.9432 52.3967 35.6382 52.38 35.3952 52.2275C35.1521 52.075 35.0044 51.8081 35.0044 51.5222V31.5542H49.8374Z" fill="#F06129"/>
<path d="M47.9854 60.3882H36.8564C35.8695 60.3882 35.0693 61.1883 35.0693 62.1753C35.0693 63.1623 35.8695 63.9624 36.8564 63.9624H47.9854C48.9723 63.9624 49.7725 63.1623 49.7725 62.1753C49.7725 61.1883 48.9723 60.3882 47.9854 60.3882V60.3882Z" fill="#F06129"/>
<path d="M100.166 45.3688C100.166 60.7494 87.9454 73.6706 87.4243 74.2139C87.1438 74.5084 86.7538 74.6736 86.348 74.6736C85.9422 74.6736 85.5521 74.5084 85.2716 74.2139C84.7503 73.6706 72.5303 60.7494 72.5303 45.3688C72.5303 37.7502 78.7299 31.5542 86.3482 31.5542C93.968 31.5542 100.166 37.75 100.166 45.3688V45.3688Z" fill="#F06129"/>
<path d="M100.165 45.3688C100.165 60.7494 87.9451 73.6706 87.424 74.2139C87.1435 74.5084 86.7534 74.6736 86.3477 74.6736C86.6102 74.6736 86.8631 74.5084 87.0461 74.2139C87.3823 73.6706 95.3008 60.7494 95.3008 45.3688C95.3008 37.7502 91.2839 31.5542 86.3477 31.5542C93.9677 31.5542 100.165 37.75 100.165 45.3688V45.3688Z" fill="#FF9A3D"/>
<path d="M92.6273 45.5439C92.6273 49.004 89.8101 51.8214 86.3481 51.8214C82.8861 51.8214 80.0708 49.004 80.0708 45.5439C80.0708 42.0817 82.8861 39.2664 86.3481 39.2664C89.8098 39.2661 92.6273 42.0817 92.6273 45.5439Z" fill="white"/>
<path d="M92.6268 45.5439C92.6268 49.004 89.8096 51.8214 86.3477 51.8214C87.7742 51.8214 89.1332 49.004 89.1332 45.5439C89.1332 42.0817 87.7742 39.2664 86.3477 39.2664C89.8094 39.2661 92.6268 42.0817 92.6268 45.5439Z" fill="#E0E0E0"/>
</g>
<defs>
<linearGradient id="paint0_linear" x1="42.4209" y1="31.5542" x2="42.4209" y2="74.6736" gradientUnits="userSpaceOnUse">
<stop stop-color="#FF9A3D"/>
<stop offset="1" stop-color="#FADAB7"/>
</linearGradient>
<clipPath id="clip0">
<rect width="122" height="122" fill="white"/>
</clipPath>
</defs>
</svg>
