<svg width="49" height="49" viewBox="0 0 49 49" fill="none" xmlns="http://www.w3.org/2000/svg">
<circle cx="24.5" cy="24.5" r="24.5" fill="#FF9A3D"/>
<path d="M30.6981 34H17.3264V31.3471L23.6371 24.6211C24.5035 23.6743 25.1422 22.848 25.5531 22.1424C25.9729 21.4367 26.1828 20.7668 26.1828 20.1326C26.1828 19.2662 25.964 18.5873 25.5263 18.0961C25.0886 17.5958 24.4633 17.3457 23.6505 17.3457C22.7751 17.3457 22.0829 17.6494 21.5738 18.2568C21.0735 18.8553 20.8234 19.6458 20.8234 20.6284H16.9379C16.9379 19.4404 17.2193 18.3551 17.782 17.3725C18.3537 16.39 19.1576 15.6218 20.1937 15.068C21.2299 14.5053 22.4045 14.2239 23.7175 14.2239C25.7273 14.2239 27.286 14.7062 28.3936 15.6709C29.5101 16.6356 30.0684 17.9978 30.0684 19.7575C30.0684 20.7221 29.8183 21.7047 29.318 22.7051C28.8178 23.7055 27.9603 24.8712 26.7455 26.2021L22.3107 30.8782H30.6981V34Z" fill="white"/>
</svg>
