<svg width="49" height="49" viewBox="0 0 49 49" fill="none" xmlns="http://www.w3.org/2000/svg">
<circle cx="24.5" cy="24.5" r="24.5" fill="#FF9A3D"/>
<path d="M21.2656 22.5309H23.3289C24.3115 22.5309 25.0395 22.2853 25.5129 21.794C25.9863 21.3027 26.223 20.6507 26.223 19.8379C26.223 19.0518 25.9863 18.4399 25.5129 18.0023C25.0484 17.5646 24.4053 17.3457 23.5835 17.3457C22.8421 17.3457 22.2213 17.5512 21.7211 17.9621C21.2209 18.364 20.9708 18.891 20.9708 19.5431H17.0987C17.0987 18.5248 17.3711 17.6137 17.916 16.8098C18.4698 15.997 19.238 15.3628 20.2205 14.9072C21.212 14.4517 22.3017 14.2239 23.4897 14.2239C25.5531 14.2239 27.1698 14.7196 28.34 15.7111C29.5101 16.6937 30.0952 18.0514 30.0952 19.7843C30.0952 20.6775 29.8227 21.4993 29.2779 22.2496C28.733 22.9999 28.0184 23.576 27.1341 23.978C28.2328 24.371 29.0501 24.9605 29.586 25.7466C30.1309 26.5326 30.4033 27.4616 30.4033 28.5334C30.4033 30.2663 29.7691 31.6553 28.5007 32.7004C27.2413 33.7454 25.571 34.268 23.4897 34.268C21.5425 34.268 19.9481 33.7544 18.7065 32.7271C17.4738 31.6999 16.8575 30.3422 16.8575 28.654H20.7296C20.7296 29.3865 21.0021 29.9849 21.547 30.4494C22.1008 30.9139 22.7796 31.1461 23.5835 31.1461C24.5035 31.1461 25.2226 30.905 25.7407 30.4226C26.2677 29.9313 26.5312 29.2837 26.5312 28.4798C26.5312 26.5326 25.4593 25.559 23.3155 25.559H21.2656V22.5309Z" fill="white"/>
</svg>
