<svg width="49" height="49" viewBox="0 0 49 49" fill="none" xmlns="http://www.w3.org/2000/svg">
<circle cx="24.5" cy="24.5" r="24.5" fill="#FF9A3D"/>
<path d="M17.9026 24.4067L19.028 14.4919H29.9612V17.7209H22.2035L21.7211 21.9146C22.6412 21.4233 23.6192 21.1777 24.6554 21.1777C26.5133 21.1777 27.9693 21.7538 29.0233 22.9061C30.0773 24.0584 30.6043 25.6706 30.6043 27.7429C30.6043 29.0024 30.3363 30.1323 29.8004 31.1327C29.2734 32.1242 28.5141 32.8969 27.5227 33.4507C26.5312 33.9955 25.361 34.268 24.0123 34.268C22.8332 34.268 21.739 34.0313 20.7296 33.5579C19.7203 33.0755 18.9209 32.4011 18.3313 31.5347C17.7507 30.6683 17.4426 29.6812 17.4068 28.5736H21.2388C21.3192 29.3865 21.6005 30.0207 22.0829 30.4762C22.5742 30.9228 23.2128 31.1461 23.9989 31.1461C24.8742 31.1461 25.5486 30.8335 26.022 30.2082C26.4954 29.574 26.7321 28.6808 26.7321 27.5286C26.7321 26.421 26.4597 25.5724 25.9148 24.9829C25.37 24.3933 24.5973 24.0986 23.5969 24.0986C22.6769 24.0986 21.931 24.3397 21.3594 24.8221L20.9842 25.1704L17.9026 24.4067Z" fill="white"/>
</svg>
