<svg width="20" height="20" viewBox="0 0 20 20" fill="none" xmlns="http://www.w3.org/2000/svg">
<circle cx="10" cy="10" r="9.5" stroke="#F06129"/>
<path d="M10 1C5.03759 1 1 5.03759 1 10C1 14.9624 5.03759 19 10 19C14.9624 19 19 14.9624 19 10C19 5.03759 14.9624 1 10 1ZM15.0301 7.63158L9.2782 13.3383C8.93985 13.6767 8.3985 13.6992 8.03759 13.3609L4.99248 10.5865C4.63158 10.2481 4.60902 9.68421 4.92481 9.32331C5.26316 8.96241 5.82707 8.93985 6.18797 9.2782L8.6015 11.4887L13.7444 6.34586C14.1053 5.98496 14.6692 5.98496 15.0301 6.34586C15.391 6.70677 15.391 7.27068 15.0301 7.63158Z" fill="#F06129"/>
</svg>
