<svg width="1000" height="1000" viewBox="0 0 1000 1000" fill="none" xmlns="http://www.w3.org/2000/svg">
<rect width="1000" height="1000" fill="#FBE4AA"/>
<g clip-path="url(#clip0)">
<path d="M762.803 384.236C783.171 317.369 780.917 246.665 776.83 205.414C776.377 200.779 774.927 196.298 772.578 192.277C770.23 188.256 767.04 184.791 763.226 182.12C759.412 179.448 755.066 177.634 750.484 176.8C745.903 175.967 741.196 176.135 736.686 177.293C656.952 197.846 609.688 232.414 583.031 259.941C555.633 253.674 527.605 250.578 499.5 250.712C471.395 250.578 443.367 253.674 415.969 259.941C389.312 232.414 342.048 197.846 262.314 177.293C257.804 176.135 253.097 175.967 248.515 176.8C243.934 177.634 239.588 179.448 235.774 182.12C231.96 184.791 228.77 188.256 226.422 192.277C224.073 196.298 222.623 200.779 222.17 205.414C218.083 246.665 215.829 317.369 236.197 384.236C195.842 444.788 176.502 538.167 176.502 609.623C176.502 673.523 283.078 822.498 499.5 822.498C715.922 822.498 822.498 673.523 822.498 609.623C822.498 538.167 803.158 444.788 762.803 384.236Z" fill="#F29555"/>
<path d="M668.923 560.962C602.122 560.962 573.276 627.051 499.501 627.051C425.726 627.051 396.88 560.962 330.079 560.962C233.192 560.962 192.073 642.476 187.459 652.298C219.666 723.489 323.091 822.498 499.501 822.498C675.911 822.498 779.336 723.489 811.543 652.298C806.929 642.476 765.81 560.962 668.923 560.962Z" fill="#F7E3CD"/>
<path d="M498.183 773.35C351.99 773.35 248.802 715.038 187.841 651.507L187.459 652.298C219.666 723.489 323.091 822.498 499.501 822.498C675.911 822.498 779.336 723.489 811.543 652.298C811.267 651.691 810.832 650.808 810.225 649.661C749.528 713.931 645.76 773.35 498.183 773.35Z" fill="#F2C59E"/>
<path d="M328.113 290.791C311.449 273.23 285.688 246.784 275.748 240.231C236.197 214.154 219.585 248.142 219.585 248.142C218.729 286.176 221.576 333.453 234.76 379.305C276.288 338.093 347.783 301.522 347.783 301.522C340.263 300.095 333.382 296.341 328.113 290.791Z" fill="#F7E3CD"/>
<path d="M670.887 290.791C687.551 273.23 713.311 246.784 723.252 240.231C762.803 214.154 779.414 248.142 779.414 248.142C780.271 286.176 777.423 333.453 764.24 379.305C722.711 338.093 651.217 301.522 651.217 301.522C658.736 300.095 665.617 296.341 670.887 290.791Z" fill="#F7E3CD"/>
<path d="M435.823 421.189C435.823 434.795 422.204 445.83 405.421 445.83C388.638 445.83 375.007 429.521 375.007 415.916C375.007 402.311 388.625 396.549 405.421 396.549C422.217 396.549 435.823 407.584 435.823 421.189Z" fill="#F7E3CD"/>
<path d="M565.207 421.189C565.207 434.795 578.826 445.83 595.622 445.83C612.418 445.83 626.063 429.521 626.063 415.916C626.063 402.311 612.444 396.549 595.661 396.549C578.879 396.549 565.207 407.584 565.207 421.189Z" fill="#F7E3CD"/>
<path d="M500.515 658.534C500.515 658.534 467.965 704.386 409.68 690.425V692.6C409.68 692.6 422.534 754.141 499.5 754.141C576.466 754.141 589.306 692.6 589.306 692.6V690.899C532.3 703.318 500.515 658.534 500.515 658.534Z" fill="#AA0C18"/>
<path d="M602.331 673.088C553.117 692.864 522.307 663.741 513.698 653.893V651.876C526.747 649.11 538.788 642.822 548.516 633.696C561.304 621.831 568.937 606.814 568.937 593.367C568.937 566.183 538.892 544.891 500.514 544.891C462.137 544.891 432.092 566.183 432.092 593.367C432.092 617.256 455.822 645.482 487.331 651.876V653.88C478.669 663.794 447.859 692.877 398.698 673.088C397.086 672.41 395.356 672.059 393.607 672.056C391.858 672.053 390.127 672.398 388.513 673.07C386.899 673.743 385.435 674.73 384.206 675.973C382.977 677.217 382.007 678.693 381.354 680.315C380.701 681.937 380.377 683.673 380.401 685.421C380.425 687.169 380.797 688.895 381.494 690.499C382.192 692.102 383.201 693.551 384.464 694.76C385.727 695.97 387.218 696.916 388.849 697.544C392.079 698.862 395.243 699.97 398.342 700.945C402.114 712.225 407.967 722.698 415.599 731.821C429.112 748.011 454.675 767.325 499.499 767.325C544.324 767.325 569.873 748.011 583.387 731.821C590.859 722.889 596.629 712.66 600.407 701.644C604.239 700.528 608.163 699.161 612.18 697.544C615.37 696.201 617.904 693.658 619.235 690.463C620.566 687.269 620.588 683.679 619.295 680.468C618.002 677.258 615.498 674.684 612.325 673.304C609.151 671.923 605.562 671.846 602.331 673.088ZM499.499 740.958C458.353 740.958 438.644 721.182 429.626 706.232H431.367C448.111 706.233 464.573 701.924 479.17 693.721C486.905 689.386 494.078 684.117 500.528 678.032C506.98 684.114 514.152 689.383 521.885 693.721C536.381 701.868 552.718 706.174 569.346 706.232C567.319 709.601 565.013 712.794 562.451 715.777C548.002 732.494 526.829 740.958 499.499 740.958Z" fill="black"/>
<path d="M632.352 468.822C619.461 468.836 607.102 473.963 597.987 483.078C588.872 492.193 583.745 504.552 583.731 517.443C583.731 520.939 585.12 524.293 587.592 526.765C590.065 529.237 593.418 530.626 596.914 530.626C600.411 530.626 603.764 529.237 606.237 526.765C608.709 524.293 610.098 520.939 610.098 517.443C610.098 511.541 612.443 505.88 616.616 501.707C620.789 497.534 626.45 495.189 632.352 495.189C638.254 495.189 643.914 497.534 648.088 501.707C652.261 505.88 654.606 511.541 654.606 517.443C654.606 520.939 655.995 524.293 658.467 526.765C660.94 529.237 664.293 530.626 667.789 530.626C671.286 530.626 674.639 529.237 677.112 526.765C679.584 524.293 680.973 520.939 680.973 517.443C680.959 504.552 675.832 492.193 666.717 483.078C657.602 473.963 645.243 468.836 632.352 468.822Z" fill="black"/>
<path d="M390.934 517.443C390.934 520.939 392.323 524.293 394.796 526.765C397.268 529.237 400.621 530.626 404.118 530.626C407.614 530.626 410.968 529.237 413.44 526.765C415.912 524.293 417.301 520.939 417.301 517.443C417.408 510.991 416.229 504.583 413.833 498.592C411.438 492.601 407.874 487.146 403.349 482.546C398.824 477.946 393.429 474.293 387.478 471.799C381.527 469.305 375.139 468.021 368.687 468.021C362.234 468.021 355.847 469.305 349.896 471.799C343.945 474.293 338.549 477.946 334.025 482.546C329.5 487.146 325.936 492.601 323.54 498.592C321.145 504.583 319.966 510.991 320.072 517.443C320.072 520.939 321.461 524.293 323.934 526.765C326.406 529.237 329.759 530.626 333.256 530.626C336.752 530.626 340.106 529.237 342.578 526.765C345.051 524.293 346.44 520.939 346.44 517.443C346.367 514.476 346.889 511.524 347.975 508.762C349.06 505.999 350.688 503.482 352.761 501.358C354.834 499.234 357.311 497.546 360.046 496.393C362.781 495.241 365.719 494.647 368.687 494.647C371.655 494.647 374.593 495.241 377.328 496.393C380.063 497.546 382.54 499.234 384.613 501.358C386.686 503.482 388.313 505.999 389.399 508.762C390.484 511.524 391.006 514.476 390.934 517.443Z" fill="black"/>
<path d="M778.254 381.85C796.922 316.38 795.617 248.867 791.095 203.173C790.448 196.622 788.392 190.289 785.068 184.607C781.744 178.925 777.23 174.03 771.836 170.257C766.443 166.484 760.297 163.922 753.82 162.747C747.343 161.572 740.688 161.812 734.313 163.451C655.211 183.832 606.814 217.899 579.142 244.714C526.585 234.027 472.415 234.027 419.858 244.714C392.172 217.899 343.789 183.832 264.687 163.451C258.312 161.812 251.657 161.572 245.18 162.747C238.703 163.922 232.557 166.484 227.164 170.257C221.77 174.03 217.256 178.925 213.932 184.607C210.608 190.289 208.552 196.622 207.905 203.173C203.383 248.867 202.078 316.38 220.746 381.85C177.478 450.418 162 547.04 162 610.137C162 644.52 188.367 701.447 247.364 751.109C293.902 790.291 375.416 837 499.5 837C623.584 837 705.164 790.291 751.636 751.109C810.633 701.447 837 644.52 837 610.137C837 547.04 821.522 450.418 778.254 381.85ZM740.918 189.066C743.578 188.371 746.359 188.265 749.064 188.757C751.77 189.249 754.335 190.327 756.58 191.914C758.855 193.502 760.759 195.564 762.161 197.958C763.563 200.353 764.429 203.022 764.701 205.783C765.083 209.659 765.453 213.957 765.795 218.584C765.004 218.321 764.227 218.057 763.396 217.833C748.986 213.878 733.298 217.49 716.779 228.38C708.17 234.049 689.713 251.767 661.909 281.048C658.742 284.414 654.64 286.756 650.131 287.771C645.623 288.786 640.913 288.428 636.609 286.744C624.507 281.984 609.306 273.916 600.038 261.365C625.641 237.292 669.568 207.444 740.918 189.066ZM242.42 191.914C245.596 189.665 249.391 188.453 253.283 188.447C254.92 188.452 256.549 188.66 258.135 189.066C329.432 207.444 373.359 237.292 398.975 261.365C389.747 273.916 374.506 281.984 362.404 286.744C358.091 288.439 353.369 288.802 348.847 287.787C344.326 286.772 340.213 284.425 337.039 281.048C309.234 251.767 290.777 234.049 282.168 228.38C265.649 217.49 249.961 213.878 235.551 217.833C234.721 218.057 233.943 218.321 233.152 218.584C233.495 213.957 233.864 209.659 234.246 205.783C234.524 203.018 235.399 200.345 236.81 197.951C238.221 195.556 240.135 193.497 242.42 191.914ZM734.577 730.872C691.427 767.22 615.608 810.541 499.5 810.541C383.392 810.541 307.573 767.22 264.423 730.872C214.563 688.883 188.473 638.35 188.473 610.137C188.473 544.47 206.218 451.591 245.861 391.777C255.237 380.697 265.754 370.635 277.238 361.758C280.044 359.66 281.901 356.534 282.402 353.066C282.903 349.599 282.005 346.074 279.907 343.268C277.81 340.462 274.683 338.605 271.215 338.104C267.748 337.603 264.223 338.501 261.417 340.599C254.566 345.791 248.046 351.405 241.893 357.408C233.336 319.795 231.346 282.103 231.754 251.24C234.398 247.449 238.245 244.662 242.67 243.33C249.42 241.59 257.818 243.989 267.719 250.475C274.311 254.787 293.032 273.019 317.975 299.255C324.766 306.469 333.565 311.479 343.235 313.637C352.904 315.795 362.999 315.001 372.212 311.357C389.562 304.528 411.987 292.083 424.564 270.818C474.078 260.587 525.16 260.587 574.673 270.818C587.25 292.083 609.675 304.528 627.025 311.357C636.238 315.001 646.333 315.795 656.003 313.637C665.672 311.479 674.472 306.469 681.262 299.255C706.206 273.006 724.992 254.773 731.518 250.475C741.366 243.989 749.777 241.59 756.567 243.33C760.992 244.664 764.838 247.45 767.483 251.24C767.958 282.09 765.901 319.795 757.345 357.408C751.192 351.405 744.671 345.791 737.82 340.599C736.43 339.555 734.849 338.796 733.166 338.364C731.484 337.932 729.732 337.836 728.012 338.081C726.292 338.325 724.637 338.907 723.142 339.791C721.647 340.676 720.34 341.846 719.297 343.235C718.254 344.625 717.495 346.206 717.062 347.889C716.63 349.571 716.534 351.323 716.779 353.043C717.024 354.763 717.605 356.418 718.49 357.913C719.374 359.409 720.544 360.715 721.934 361.758C733.419 370.638 743.936 380.705 753.311 391.79C792.954 451.591 810.699 544.47 810.699 610.137C810.527 638.35 784.437 688.883 734.577 730.872Z" fill="#F29555"/>
</g>
<defs>
<clipPath id="clip0">
<rect width="675" height="675" fill="white" transform="translate(162 162)"/>
</clipPath>
</defs>
</svg>
