<svg width="98" height="98" viewBox="0 0 98 98" fill="none" xmlns="http://www.w3.org/2000/svg">
<g clip-path="url(#clip0)">
<path d="M87.2277 32.2654C90.1849 22.5573 89.8576 12.2921 89.2642 6.30304C89.1985 5.63022 88.9879 4.9796 88.647 4.39583C88.306 3.81207 87.8428 3.30899 87.2891 2.92113C86.7354 2.53327 86.1044 2.26982 85.4392 2.14885C84.7741 2.02789 84.0907 2.05228 83.4359 2.22035C71.8596 5.20437 64.9977 10.223 61.1275 14.2196C57.1497 13.3098 53.0805 12.8602 49 12.8798C44.9195 12.8602 40.8503 13.3098 36.8725 14.2196C33.0023 10.223 26.1404 5.20437 14.5641 2.22035C13.9093 2.05228 13.2259 2.02789 12.5608 2.14885C11.8956 2.26982 11.2646 2.53327 10.7109 2.92113C10.1572 3.30899 9.69398 3.81207 9.35305 4.39583C9.01212 4.9796 8.80154 5.63022 8.73578 6.30304C8.14242 12.2921 7.81512 22.5573 10.7723 32.2654C4.9134 41.0567 2.10547 54.6159 2.10547 64.9882C2.10547 74.2657 17.5787 95.8946 49 95.8946C80.4213 95.8946 95.8945 74.2657 95.8945 64.9882C95.8945 54.6159 93.0866 41.0567 87.2277 32.2654V32.2654Z" fill="#F29555"/>
<path d="M73.5979 57.9234C63.8993 57.9234 59.7113 67.5186 49.0002 67.5186C38.2891 67.5186 34.1012 57.9234 24.4026 57.9234C10.3362 57.9234 4.36621 69.758 3.69629 71.184C8.37235 81.52 23.3882 95.8946 49.0002 95.8946C74.6123 95.8946 89.6281 81.52 94.3042 71.184C93.6343 69.758 87.6643 57.9234 73.5979 57.9234Z" fill="#F7E3CD"/>
<path d="M48.8088 88.7589C27.5838 88.7589 12.6024 80.293 3.7518 71.0691L3.69629 71.1839C8.37235 81.5199 23.3882 95.8945 49.0002 95.8945C74.6123 95.8945 89.6281 81.5199 94.3042 71.1839C94.264 71.0959 94.2008 70.9677 94.1128 70.8011C85.3004 80.1322 70.2348 88.7589 48.8088 88.7589V88.7589Z" fill="#F2C59E"/>
<path d="M24.1171 18.6984C21.6978 16.1489 17.9577 12.3093 16.5145 11.358C10.7723 7.57199 8.36058 12.5064 8.36058 12.5064C8.23617 18.0285 8.6496 24.8923 10.5637 31.5495C16.593 25.5661 26.9729 20.2565 26.9729 20.2565C25.8812 20.0493 24.8822 19.5043 24.1171 18.6984V18.6984Z" fill="#F7E3CD"/>
<path d="M73.8828 18.6984C76.3022 16.1489 80.0423 12.3093 81.4855 11.358C87.2277 7.57199 89.6394 12.5064 89.6394 12.5064C89.7638 18.0285 89.3503 24.8923 87.4363 31.5495C81.407 25.5661 71.027 20.2565 71.027 20.2565C72.1187 20.0493 73.1178 19.5043 73.8828 18.6984V18.6984Z" fill="#F7E3CD"/>
<path d="M39.7551 37.6304C39.7551 39.6057 37.7778 41.2078 35.3412 41.2078C32.9046 41.2078 30.9255 38.8401 30.9255 36.8648C30.9255 34.8895 32.9027 34.053 35.3412 34.053C37.7797 34.053 39.7551 35.6551 39.7551 37.6304Z" fill="#F7E3CD"/>
<path d="M58.5398 37.6304C58.5398 39.6057 60.517 41.2078 62.9555 41.2078C65.394 41.2078 67.3751 38.8401 67.3751 36.8648C67.3751 34.8895 65.3979 34.053 62.9613 34.053C60.5247 34.053 58.5398 35.6551 58.5398 37.6304V37.6304Z" fill="#F7E3CD"/>
<path d="M49.2583 85.2944C51.6399 85.2944 53.5707 82.9627 53.5707 80.0863C53.5707 77.2099 51.6399 74.8781 49.2583 74.8781C46.8766 74.8781 44.9459 77.2099 44.9459 80.0863C44.9459 82.9627 46.8766 85.2944 49.2583 85.2944Z" fill="#AA0C18"/>
<path d="M49.1473 55.5901C43.5774 55.5901 39.2133 58.6813 39.2133 62.6281C39.2133 66.0964 42.6586 70.1944 47.2332 71.1227V73.3526C44.7909 74.3096 43.0223 76.9701 43.0223 80.0862C43.0223 84.012 45.8149 87.2065 49.2487 87.2065C52.6825 87.2065 55.4752 84.012 55.4752 80.0862C55.4752 76.8764 53.609 74.1526 51.0518 73.2703V71.1227C52.9462 70.721 54.6945 69.8082 56.1068 68.4832C57.9635 66.7605 59.0717 64.5804 59.0717 62.6281C59.0813 58.6813 54.7172 55.5901 49.1473 55.5901V55.5901ZM49.2583 83.3784C47.9586 83.3784 46.86 81.8701 46.86 80.0862C46.86 78.3023 47.9586 76.7921 49.2583 76.7921C50.5579 76.7921 51.6566 78.3004 51.6566 80.0862C51.6566 81.8721 50.5599 83.3784 49.2583 83.3784Z" fill="black"/>
<path d="M30.3363 53.1803C33.108 53.1803 35.3549 50.9334 35.3549 48.1616C35.3549 45.3899 33.108 43.143 30.3363 43.143C27.5645 43.143 25.3176 45.3899 25.3176 48.1616C25.3176 50.9334 27.5645 53.1803 30.3363 53.1803Z" fill="black"/>
<path d="M67.9588 43.143C66.9662 43.143 65.9959 43.4373 65.1705 43.9888C64.3452 44.5402 63.702 45.324 63.3221 46.2411C62.9423 47.1581 62.8429 48.1672 63.0365 49.1407C63.2302 50.1143 63.7082 51.0085 64.41 51.7104C65.1119 52.4123 66.0061 52.8902 66.9797 53.0839C67.9532 53.2775 68.9623 53.1782 69.8793 52.7983C70.7964 52.4184 71.5802 51.7752 72.1316 50.9499C72.6831 50.1246 72.9774 49.1542 72.9774 48.1616C72.9764 46.8309 72.4473 45.555 71.5064 44.614C70.5654 43.6731 69.2895 43.144 67.9588 43.143V43.143Z" fill="black"/>
<path d="M89.4709 31.9194C92.1813 22.4142 91.9918 12.6123 91.3352 5.97811C91.2414 5.02704 90.9429 4.10752 90.4603 3.28264C89.9777 2.45776 89.3223 1.74703 88.5392 1.1992C87.7561 0.651382 86.8638 0.27943 85.9235 0.108863C84.9831 -0.0617037 84.017 -0.0268489 83.0914 0.211036C71.607 3.17018 64.5805 8.11612 60.5629 12.0093C52.9324 10.4576 45.0676 10.4576 37.4371 12.0093C33.4176 8.11612 26.393 3.17018 14.9086 0.211036C13.983 -0.0268489 13.0169 -0.0617037 12.0766 0.108863C11.1362 0.27943 10.2439 0.651382 9.46078 1.1992C8.67768 1.74703 8.02235 2.45776 7.53973 3.28264C7.05711 4.10752 6.75863 5.02704 6.66477 5.97811C6.00824 12.6123 5.81875 22.4142 8.52906 31.9194C2.24711 41.8744 0 55.9026 0 65.0633C0 70.0552 3.82812 78.3201 12.3936 85.5304C19.1502 91.219 30.9848 98.0005 49 98.0005C67.0152 98.0005 78.8594 91.219 85.6064 85.5304C94.1719 78.3201 98 70.0552 98 65.0633C98 55.9026 95.7529 41.8744 89.4709 31.9194V31.9194ZM84.0503 3.93006C84.4366 3.82909 84.8402 3.81378 85.233 3.8852C85.6258 3.95661 85.9982 4.11303 86.3242 4.3435C86.6545 4.57407 86.9309 4.87345 87.1345 5.22105C87.338 5.56865 87.4638 5.95622 87.5033 6.35709C87.5588 6.91983 87.6124 7.54381 87.6621 8.21565C87.5473 8.17737 87.4344 8.13909 87.3138 8.10655C85.2217 7.53233 82.944 8.05678 80.5457 9.6378C79.2958 10.4608 76.6161 13.0333 72.5793 17.2845C72.1196 17.7732 71.524 18.1131 70.8694 18.2605C70.2148 18.4079 69.5311 18.3559 68.9062 18.1114C67.1491 17.4204 64.9422 16.249 63.5966 14.4268C67.3138 10.9317 73.6914 6.59827 84.0503 3.93006ZM11.6758 4.3435C12.1369 4.01691 12.6879 3.84107 13.253 3.8401C13.4906 3.84082 13.7272 3.87104 13.9573 3.93006C24.3086 6.59827 30.6862 10.9317 34.4053 14.4268C33.0654 16.249 30.8528 17.4204 29.0957 18.1114C28.4695 18.3575 27.7839 18.4103 27.1275 18.2629C26.471 18.1155 25.8738 17.7747 25.413 17.2845C21.3763 13.0333 18.6966 10.4608 17.4467 9.6378C15.0484 8.05678 12.7706 7.53233 10.6786 8.10655C10.558 8.13909 10.445 8.17737 10.3302 8.21565C10.38 7.54381 10.4336 6.91983 10.4891 6.35709C10.5294 5.95559 10.6564 5.56762 10.8613 5.21998C11.0662 4.87233 11.3441 4.57329 11.6758 4.3435V4.3435ZM83.1296 82.5923C76.8649 87.8694 65.8571 94.159 49 94.159C32.1429 94.159 21.1351 87.8694 14.8704 82.5923C7.63137 76.496 3.84344 69.1594 3.84344 65.0633C3.84344 55.5294 6.41977 42.0448 12.1754 33.3607C13.5366 31.752 15.0635 30.2912 16.7308 29.0024C17.1382 28.6978 17.4079 28.2438 17.4806 27.7404C17.5533 27.237 17.423 26.7253 17.1184 26.3179C16.8138 25.9105 16.3599 25.6408 15.8565 25.5681C15.353 25.4954 14.8413 25.6257 14.4339 25.9303C13.4393 26.6841 12.4925 27.4992 11.5992 28.3707C10.357 22.9099 10.068 17.4376 10.1273 12.9568C10.5111 12.4064 11.0696 12.0017 11.7121 11.8083C12.6921 11.5557 13.9114 11.904 15.3489 12.8458C16.3059 13.4717 19.0239 16.1188 22.6453 19.9278C23.6312 20.9752 24.9087 21.7026 26.3126 22.0159C27.7165 22.3292 29.1821 22.2139 30.5197 21.6849C33.0386 20.6934 36.2945 18.8865 38.1205 15.7992C45.3091 14.3139 52.7254 14.3139 59.914 15.7992C61.74 18.8865 64.9958 20.6934 67.5147 21.6849C68.8524 22.2139 70.318 22.3292 71.7219 22.0159C73.1257 21.7026 74.4033 20.9752 75.3892 19.9278C79.0106 16.1169 81.7381 13.4698 82.6856 12.8458C84.1154 11.904 85.3366 11.5557 86.3223 11.8083C86.9647 12.002 87.5231 12.4066 87.9071 12.9568C87.9761 17.4357 87.6775 22.9099 86.4352 28.3707C85.5419 27.4992 84.5952 26.6841 83.6005 25.9303C83.3988 25.7789 83.1692 25.6686 82.9249 25.6059C82.6806 25.5432 82.4263 25.5292 82.1766 25.5647C81.9269 25.6003 81.6866 25.6847 81.4695 25.8131C81.2524 25.9415 81.0627 26.1114 80.9113 26.3131C80.7598 26.5148 80.6496 26.7444 80.5869 26.9887C80.5241 27.233 80.5101 27.4873 80.5457 27.737C80.5812 27.9867 80.6656 28.227 80.794 28.4441C80.9224 28.6612 81.0923 28.8509 81.2941 29.0024C82.9616 30.2916 84.4885 31.7531 85.8495 33.3626C91.6051 42.0448 94.1814 55.5294 94.1814 65.0633C94.1566 69.1594 90.3686 76.496 83.1296 82.5923V82.5923Z" fill="#F29555"/>
</g>
<circle cx="11" cy="89" r="9" fill="#E77F38"/>
<circle cx="89" cy="89" r="9" fill="#E77F38"/>
<defs>
<clipPath id="clip0">
<rect width="98" height="90" fill="white"/>
</clipPath>
</defs>
</svg>
