<svg width="227" height="165" viewBox="0 0 227 165" fill="none" xmlns="http://www.w3.org/2000/svg">
<g clip-path="url(#clip0)">
<g filter="url(#filter0_d)">
<rect x="66.2162" y="126.43" width="63.579" height="23.2961" fill="#F29555"/>
<path d="M149.717 43.5408C153.708 30.4391 153.266 16.5858 152.465 8.50312C152.376 7.59511 152.092 6.71705 151.632 5.92923C151.172 5.1414 150.547 4.46247 149.8 3.93903C149.052 3.41559 148.201 3.06004 147.303 2.89679C146.406 2.73355 145.483 2.76646 144.6 2.99328C128.977 7.0204 119.717 13.7934 114.494 19.187C109.126 17.9591 103.634 17.3524 98.1273 17.3788C92.6206 17.3524 87.1291 17.9591 81.7609 19.187C76.5379 13.7934 67.2775 7.0204 51.655 2.99328C50.7713 2.76646 49.849 2.73355 48.9514 2.89679C48.0538 3.06004 47.2022 3.41559 46.455 3.93903C45.7077 4.46247 45.0826 5.1414 44.6225 5.92923C44.1624 6.71705 43.8782 7.59511 43.7895 8.50312C42.9887 16.5858 42.547 30.4391 46.5379 43.5408C38.6311 55.4052 34.8417 73.7042 34.8417 87.7022C34.8417 100.223 55.7234 129.412 98.1273 129.412C140.531 129.412 161.413 100.223 161.413 87.7022C161.413 73.7042 157.624 55.4052 149.717 43.5408Z" fill="#F29555"/>
<path d="M131.323 78.1677C118.234 78.1677 112.582 91.117 98.1274 91.117C83.6725 91.117 78.0207 78.1677 64.9322 78.1677C45.949 78.1677 37.8924 94.1393 36.9883 96.0637C43.2988 110.013 63.5631 129.412 98.1274 129.412C132.692 129.412 152.956 110.013 159.267 96.0637C158.362 94.1393 150.306 78.1677 131.323 78.1677Z" fill="#F7E3CD"/>
<path d="M97.8691 119.782C69.2253 119.782 49.0074 108.357 37.0632 95.9089L36.9883 96.0639C43.2988 110.013 63.5631 129.412 98.1274 129.412C132.692 129.412 152.956 110.013 159.267 96.0639C159.212 95.9451 159.127 95.772 159.008 95.5473C147.116 108.14 126.784 119.782 97.8691 119.782Z" fill="#F2C59E"/>
<path d="M64.547 25.2313C61.282 21.7906 56.2346 16.6088 54.287 15.325C46.5377 10.2155 43.283 16.8749 43.283 16.8749C43.1151 24.3272 43.673 33.5904 46.2561 42.5745C54.3929 34.4996 68.401 27.334 68.401 27.334C66.9276 27.0545 65.5795 26.3189 64.547 25.2313Z" fill="#F7E3CD"/>
<path d="M131.707 25.2315C134.972 21.7907 140.02 16.6089 141.967 15.3251C149.716 10.2157 152.971 16.875 152.971 16.875C153.139 24.3274 152.581 33.5905 149.998 42.5747C141.861 34.4998 127.853 27.3341 127.853 27.3341C129.326 27.0546 130.675 26.319 131.707 25.2315Z" fill="#F7E3CD"/>
<path d="M85.6508 50.7811C85.6508 53.4469 82.9824 55.609 79.6942 55.609C76.4059 55.609 73.735 52.4136 73.735 49.7478C73.735 47.082 76.4033 45.9532 79.6942 45.9532C82.985 45.9532 85.6508 48.1153 85.6508 50.7811Z" fill="#F7E3CD"/>
<path d="M111.001 50.7811C111.001 53.4469 113.67 55.609 116.96 55.609C120.251 55.609 122.925 52.4136 122.925 49.7478C122.925 47.082 120.257 45.9532 116.968 45.9532C113.68 45.9532 111.001 48.1153 111.001 50.7811Z" fill="#F7E3CD"/>
<path d="M98.3258 97.2856C98.3258 97.2856 91.9482 106.27 80.5283 103.534V103.96C80.5283 103.96 83.0468 116.019 98.1269 116.019C113.207 116.019 115.723 103.96 115.723 103.96V103.627C104.554 106.061 98.3258 97.2856 98.3258 97.2856Z" fill="#AA0C18"/>
<path d="M152.744 43.0738C156.402 30.2459 156.146 17.0176 155.26 8.06447C155.133 6.78094 154.73 5.54 154.079 4.42678C153.428 3.31355 152.543 2.35438 151.486 1.61506C150.43 0.875742 149.225 0.373771 147.956 0.143581C146.687 -0.0866087 145.384 -0.0395702 144.134 0.28147C128.636 4.27501 119.153 10.9498 113.731 16.2039C103.434 14.1099 92.8202 14.1099 82.5226 16.2039C77.0981 10.9498 67.6182 4.27501 52.1197 0.28147C50.8705 -0.0395702 49.5667 -0.0866087 48.2977 0.143581C47.0287 0.373771 45.8244 0.875742 44.7676 1.61506C43.7108 2.35438 42.8264 3.31355 42.1751 4.42678C41.5238 5.54 41.121 6.78094 40.9943 8.06447C40.1083 17.0176 39.8526 30.2459 43.5102 43.0738C35.0325 56.5087 32 75.4405 32 87.8034C32 94.5403 37.1662 105.694 48.7255 115.425C57.8438 123.102 73.815 132.254 98.1271 132.254C122.439 132.254 138.423 123.102 147.529 115.425C159.088 105.694 164.254 94.5403 164.254 87.8034C164.254 75.4405 161.222 56.5087 152.744 43.0738ZM145.429 5.30051C145.95 5.16425 146.495 5.14358 147.025 5.23996C147.555 5.33635 148.057 5.54744 148.497 5.85847C148.943 6.16964 149.316 6.57367 149.591 7.04278C149.865 7.51189 150.035 8.03493 150.088 8.57593C150.163 9.33538 150.236 10.1775 150.303 11.0842C150.148 11.0325 149.995 10.9808 149.833 10.9369C147.009 10.162 143.936 10.8698 140.699 13.0034C139.012 14.1142 135.396 17.5859 129.948 23.3231C129.328 23.9826 128.524 24.4414 127.641 24.6403C126.757 24.8391 125.834 24.769 124.991 24.439C122.62 23.5065 119.642 21.9256 117.826 19.4665C122.842 14.7496 131.449 8.90141 145.429 5.30051ZM47.7568 5.85847C48.3792 5.41772 49.1227 5.18041 49.8853 5.1791C50.206 5.18008 50.5253 5.22086 50.8359 5.30051C64.8052 8.90141 73.4121 14.7496 78.431 19.4665C76.6228 21.9256 73.6368 23.5065 71.2655 24.439C70.4205 24.7712 69.4953 24.8424 68.6094 24.6435C67.7235 24.4446 66.9176 23.9846 66.2957 23.3231C60.8479 17.5859 57.2316 14.1142 55.5448 13.0034C52.3082 10.8698 49.2344 10.162 46.411 10.9369C46.2483 10.9808 46.0959 11.0325 45.9409 11.0842C46.0081 10.1775 46.0804 9.33538 46.1553 8.57593C46.2098 8.03408 46.3812 7.51049 46.6577 7.04133C46.9342 6.57216 47.3092 6.16859 47.7568 5.85847ZM144.186 111.46C135.732 118.582 120.876 127.07 98.1271 127.07C75.3778 127.07 60.5225 118.582 52.068 111.46C42.2988 103.233 37.1868 93.3314 37.1868 87.8034C37.1868 74.9368 40.6637 56.7386 48.431 45.0189C50.2681 42.8478 52.3287 40.8764 54.5788 39.1371C55.1285 38.726 55.4925 38.1134 55.5906 37.434C55.6887 36.7546 55.5129 36.064 55.1018 35.5142C54.6908 34.9644 54.0782 34.6004 53.3988 34.5023C52.7194 34.4043 52.0288 34.5801 51.4791 34.9911C50.1367 36.0085 48.8591 37.1084 47.6535 38.2846C45.9771 30.9149 45.587 23.5297 45.6671 17.4826C46.1851 16.7398 46.9387 16.1936 47.8059 15.9327C49.1285 15.5917 50.7739 16.0619 52.7138 17.3328C54.0053 18.1775 57.6733 21.75 62.5605 26.8904C63.891 28.3039 65.6151 29.2856 67.5097 29.7084C69.4043 30.1312 71.3822 29.9756 73.1873 29.2617C76.5867 27.9237 80.9805 25.4852 83.4448 21.3186C93.146 19.3141 103.155 19.3141 112.856 21.3186C115.32 25.4852 119.714 27.9237 123.113 29.2617C124.918 29.9756 126.896 30.1312 128.791 29.7084C130.686 29.2856 132.41 28.3039 133.74 26.8904C138.627 21.7474 142.308 18.1749 143.587 17.3328C145.516 16.0619 147.164 15.5917 148.495 15.9327C149.362 16.194 150.115 16.7401 150.633 17.4826C150.726 23.5272 150.324 30.9149 148.647 38.2846C147.442 37.1084 146.164 36.0085 144.822 34.9911C144.549 34.7867 144.24 34.638 143.91 34.5533C143.58 34.4687 143.237 34.4498 142.9 34.4978C142.563 34.5458 142.239 34.6596 141.946 34.8329C141.653 35.0062 141.397 35.2355 141.192 35.5078C140.988 35.78 140.839 36.0898 140.755 36.4195C140.67 36.7492 140.651 37.0924 140.699 37.4294C140.747 37.7664 140.861 38.0907 141.034 38.3837C141.207 38.6767 141.437 38.9327 141.709 39.1371C143.959 40.877 146.02 42.8493 147.857 45.0215C155.624 56.7386 159.101 74.9368 159.101 87.8034C159.067 93.3314 153.955 103.233 144.186 111.46Z" fill="#F29555"/>
<path d="M118.275 100.137C108.632 104.012 102.595 98.3034 100.909 96.3764V95.9812C103.465 95.4392 105.825 94.2072 107.73 92.4191C110.236 90.0942 111.732 87.152 111.732 84.5172C111.732 79.1908 105.845 75.019 98.3255 75.019C90.8061 75.019 84.9192 79.1908 84.9192 84.5172C84.9192 89.1979 89.5688 94.7284 95.7424 95.9812V96.3738C94.0453 98.3164 88.0086 104.015 78.3763 100.137C78.0605 100.005 77.7215 99.9358 77.3789 99.9352C77.0363 99.9346 76.697 100.002 76.3807 100.134C76.0645 100.266 75.7776 100.459 75.5368 100.703C75.296 100.946 75.1061 101.236 74.9782 101.553C74.8502 101.871 74.7867 102.211 74.7914 102.554C74.7961 102.896 74.8689 103.235 75.0056 103.549C75.1423 103.863 75.3401 104.147 75.5875 104.384C75.8349 104.621 76.127 104.806 76.4467 104.929C77.0796 105.188 77.6995 105.404 78.3065 105.596C79.0456 107.806 80.1925 109.858 81.6878 111.645C84.3355 114.817 89.3441 118.602 98.1266 118.602C106.909 118.602 111.915 114.817 114.563 111.645C116.027 109.895 117.157 107.891 117.898 105.733C118.648 105.514 119.417 105.246 120.204 104.929C120.829 104.666 121.326 104.168 121.587 103.542C121.847 102.916 121.852 102.212 121.598 101.583C121.345 100.954 120.854 100.45 120.233 100.18C119.611 99.9091 118.908 99.894 118.275 100.137ZM98.1266 113.435C90.0647 113.435 86.203 109.561 84.4362 106.629H84.7772C88.0579 106.629 91.2835 105.785 94.1434 104.178C95.659 103.328 97.0644 102.296 98.328 101.104C99.5922 102.295 100.998 103.328 102.513 104.178C105.353 105.774 108.554 106.618 111.812 106.629C111.415 107.289 110.963 107.915 110.461 108.499C107.63 111.777 103.481 113.435 98.1266 113.435Z" fill="black"/>
<path d="M63.7894 66.2552C63.7894 64.0699 66.0241 62.6183 68.1174 63.2457C72.1562 64.4562 75.4156 64.4473 79.3544 63.2624C81.4484 62.6325 83.6882 64.0799 83.6882 66.2666C83.6882 67.4579 82.9934 68.5503 81.8904 69.0007C75.874 71.4578 71.7942 71.5 65.6009 68.9983C64.4906 68.5498 63.7894 67.4527 63.7894 66.2552Z" fill="black"/>
<path d="M111.11 66.2552C111.11 64.0699 113.344 62.6183 115.438 63.2457C119.476 64.4562 122.736 64.4473 126.675 63.2624C128.769 62.6325 131.009 64.0799 131.009 66.2666C131.009 67.4579 130.314 68.5503 129.211 69.0007C123.194 71.4578 119.115 71.5 112.921 68.9983C111.811 68.5498 111.11 67.4527 111.11 66.2552Z" fill="black"/>
<circle cx="181.806" cy="94.4153" r="33.9895" fill="url(#paint0_linear)"/>
</g>
<path d="M165.141 98.9542L176.985 108.373L199.146 80.5039" stroke="white" stroke-width="7.55323" stroke-linecap="round"/>
<g filter="url(#filter1_d)">
<path d="M171.452 148.899C160.123 150.756 139.228 143.592 137.018 130.101C134.807 116.61 152.503 104.249 163.832 102.393C175.161 100.537 169.048 110.678 171.259 124.169C173.47 137.66 182.781 147.043 171.452 148.899Z" fill="#F7E3CD"/>
<ellipse cx="176.66" cy="123.767" rx="10.3139" ry="7.14038" transform="rotate(80.6944 176.66 123.767)" fill="#F7E3CD"/>
<path d="M167.094 119.387C161.435 120.584 156.719 117.798 155.717 113.062C154.714 108.327 158.489 103.516 164.147 102.319C169.806 101.121 175.205 103.989 176.208 108.725C177.21 113.461 172.752 118.189 167.094 119.387Z" fill="#F7E3CD"/>
<path d="M169.117 131.733C163.372 132.404 159.791 136.549 160.353 141.357C160.914 146.166 166.027 149.52 171.771 148.849C177.516 148.178 181.718 143.736 181.157 138.928C180.595 134.12 174.862 131.062 169.117 131.733Z" fill="#F7E3CD"/>
<rect x="158.592" y="111.671" width="29.1962" height="102.624" rx="14.5981" transform="rotate(80.6944 158.592 111.671)" fill="#F29555"/>
<path d="M177.542 113.669C177.619 113.686 177.682 113.743 177.704 113.818C177.747 113.968 177.619 114.112 177.465 114.091C170.306 113.116 167.033 114.301 162.516 118.448C162.4 118.555 162.211 118.505 162.167 118.354C162.147 118.284 162.165 118.208 162.214 118.153C166.557 113.313 169.772 111.982 177.542 113.669Z" fill="#F2C59E"/>
<path d="M181.33 132.746C181.397 132.706 181.439 132.632 181.436 132.554C181.429 132.398 181.261 132.302 181.122 132.372C174.648 135.58 171.169 135.501 165.564 133.013C165.421 132.949 165.258 133.057 165.264 133.213C165.267 133.286 165.309 133.353 165.372 133.389C171.033 136.59 174.505 136.825 181.33 132.746Z" fill="#F2C59E"/>
</g>
</g>
<defs>
<filter id="filter0_d" x="23.2799" y="-13.0801" width="212.862" height="178.793" filterUnits="userSpaceOnUse" color-interpolation-filters="sRGB">
<feFlood flood-opacity="0" result="BackgroundImageFix"/>
<feColorMatrix in="SourceAlpha" type="matrix" values="0 0 0 0 0 0 0 0 0 0 0 0 0 0 0 0 0 0 127 0"/>
<feOffset dx="5.81337" dy="1.45334"/>
<feGaussianBlur stdDeviation="7.26671"/>
<feColorMatrix type="matrix" values="0 0 0 0 0 0 0 0 0 0 0 0 0 0 0 0 0 0 0.1 0"/>
<feBlend mode="normal" in2="BackgroundImageFix" result="effect1_dropShadow"/>
<feBlend mode="normal" in="SourceGraphic" in2="effect1_dropShadow" result="shape"/>
</filter>
<filter id="filter1_d" x="57.5259" y="99.2513" width="132.727" height="70.0055" filterUnits="userSpaceOnUse" color-interpolation-filters="sRGB">
<feFlood flood-opacity="0" result="BackgroundImageFix"/>
<feColorMatrix in="SourceAlpha" type="matrix" values="0 0 0 0 0 0 0 0 0 0 0 0 0 0 0 0 0 0 127 0"/>
<feOffset dy="1.9587"/>
<feGaussianBlur stdDeviation="0.97935"/>
<feColorMatrix type="matrix" values="0 0 0 0 0 0 0 0 0 0 0 0 0 0 0 0 0 0 0.1 0"/>
<feBlend mode="normal" in2="BackgroundImageFix" result="effect1_dropShadow"/>
<feBlend mode="normal" in="SourceGraphic" in2="effect1_dropShadow" result="shape"/>
</filter>
<linearGradient id="paint0_linear" x1="181.806" y1="60.4258" x2="181.806" y2="128.405" gradientUnits="userSpaceOnUse">
<stop stop-color="#F06129"/>
<stop offset="1" stop-color="#FF9A3D"/>
</linearGradient>
<clipPath id="clip0">
<rect width="227" height="165" fill="white"/>
</clipPath>
</defs>
</svg>
